<svg width="129" height="30" viewBox="0 0 129 30" fill="none" xmlns="http://www.w3.org/2000/svg">
<path d="M31 21.966H33.9733V15.6085H38.446C41.9784 15.6085 43.986 13.1574 43.986 10.2723C43.986 7.38723 42.0038 4.93617 38.446 4.93617H31V21.966ZM40.9365 10.2723C40.9365 11.9064 39.7167 12.9787 38.0394 12.9787H33.9733V7.56596H38.0394C39.7167 7.56596 40.9365 8.6383 40.9365 10.2723Z" fill="#333333"/>
<path d="M54.6696 21.966H57.338V9.63404H54.6696V18.2894C54.0343 19.1319 52.8653 19.8979 51.5184 19.8979C50.019 19.8979 49.0533 19.3106 49.0533 17.3957V9.63404H46.385V18.366C46.385 20.8936 47.681 22.2723 50.324 22.2723C52.2554 22.2723 53.7802 21.3277 54.6696 20.3319V21.966Z" fill="#333333"/>
<path d="M60.8039 21.966H63.4722V20.2808C64.4125 21.5064 65.8102 22.2723 67.4112 22.2723C70.537 22.2723 72.8496 19.8723 72.8496 15.8128C72.8496 11.8298 70.5625 9.32766 67.4112 9.32766C65.8611 9.32766 64.4379 10.0426 63.4722 11.3447V4.93617H60.8039V21.966ZM63.4722 18.2638V13.3872C64.0567 12.4681 65.3782 11.7021 66.6234 11.7021C68.7581 11.7021 70.105 13.4128 70.105 15.8128C70.105 18.2128 68.7581 19.8979 66.6234 19.8979C65.3782 19.8979 64.0567 19.183 63.4722 18.2638Z" fill="#333333"/>
<path d="M75.5702 21.966H78.2386V4.93617H75.5702V21.966Z" fill="#333333"/>
<path d="M83.0216 7.59149C83.9364 7.59149 84.6734 6.85106 84.6734 5.93191C84.6734 5.01276 83.9364 4.27234 83.0216 4.27234C82.1321 4.27234 81.3697 5.01276 81.3697 5.93191C81.3697 6.85106 82.1321 7.59149 83.0216 7.59149ZM81.7001 21.966H84.3684V9.63404H81.7001V21.966Z" fill="#333333"/>
<path d="M86.7626 20.3574C88.0333 21.6085 89.9393 22.2723 92.0231 22.2723C95.3268 22.2723 97.1311 20.6128 97.1311 18.4426C97.1311 15.5319 94.5136 14.9191 92.3789 14.4596C90.9304 14.1277 89.7105 13.7957 89.7105 12.8511C89.7105 11.983 90.6 11.4723 91.9977 11.4723C93.5225 11.4723 94.8948 12.1106 95.6318 12.9532L96.7499 11.0638C95.6318 10.0681 94.0562 9.32766 91.9723 9.32766C88.8719 9.32766 87.1438 11.0638 87.1438 13.0808C87.1438 15.8383 89.6597 16.4 91.769 16.8596C93.2683 17.1915 94.5644 17.5745 94.5644 18.6468C94.5644 19.566 93.7512 20.1532 92.1502 20.1532C90.5492 20.1532 88.8465 19.3106 87.9825 18.417L86.7626 20.3574Z" fill="#333333"/>
<path d="M108.127 21.966H110.795V13.234C110.795 10.7064 109.474 9.32766 106.831 9.32766C104.899 9.32766 103.298 10.3489 102.485 11.3191V4.93617H99.8168V21.966H102.485V13.3617C103.12 12.5191 104.289 11.7021 105.636 11.7021C107.136 11.7021 108.127 12.2894 108.127 14.2043V21.966Z" fill="#333333"/>
<path d="M114.337 15.2511C114.337 19.4383 116.751 22.2723 121.681 22.2723C126.586 22.2723 129 19.4638 129 15.2255V4.93617H126.001V15.1489C126.001 17.8553 124.502 19.617 121.681 19.617C118.835 19.617 117.335 17.8553 117.335 15.1489V4.93617H114.337V15.2511Z" fill="#333333"/>
<path fill-rule="evenodd" clip-rule="evenodd" d="M22.9122 2.46207H8.44134C6.33534 2.46207 4.82361 4.06959 4.82361 6.15516V23.3896C4.82361 25.4752 6.33534 27.0827 8.44134 27.0827H22.9122C23.6862 27.0827 24.1182 26.6234 24.1182 25.8517V24.6206H9.67236C8.99249 24.6206 8.44134 24.0695 8.44134 23.3896C8.44134 22.7097 8.99249 22.1586 9.67237 22.1586H24.1182V3.6931C24.1182 2.92136 23.6862 2.46207 22.9122 2.46207Z" fill="#629A78"/>
</svg>
